<mxfile host="app.diagrams.net" agent="Mozilla/5.0 (Windows NT 10.0; Win64; x64) AppleWebKit/537.36 (KHTML, like Gecko) Chrome/134.0.0.0 Safari/537.36" version="26.1.1">
  <diagram id="C5RBs43oDa-KdzZeNtuy" name="Page-1">
    <mxGraphModel dx="3612" dy="1500" grid="1" gridSize="10" guides="1" tooltips="1" connect="1" arrows="1" fold="1" page="1" pageScale="1" pageWidth="827" pageHeight="1169" math="0" shadow="0">
      <root>
        <mxCell id="WIyWlLk6GJQsqaUBKTNV-0" />
        <mxCell id="WIyWlLk6GJQsqaUBKTNV-1" parent="WIyWlLk6GJQsqaUBKTNV-0" />
        <mxCell id="D13XUfttvfBrkzME06DZ-3" style="edgeStyle=orthogonalEdgeStyle;rounded=0;orthogonalLoop=1;jettySize=auto;html=1;" edge="1" parent="WIyWlLk6GJQsqaUBKTNV-1" source="D13XUfttvfBrkzME06DZ-0" target="D13XUfttvfBrkzME06DZ-2">
          <mxGeometry relative="1" as="geometry" />
        </mxCell>
        <mxCell id="D13XUfttvfBrkzME06DZ-0" value="start&lt;h1&gt;start&lt;/h1&gt;" style="rounded=0;whiteSpace=wrap;html=1;" vertex="1" parent="WIyWlLk6GJQsqaUBKTNV-1">
          <mxGeometry x="330" y="40" width="120" height="60" as="geometry" />
        </mxCell>
        <mxCell id="D13XUfttvfBrkzME06DZ-1" value="&lt;h1&gt;stop&lt;/h1&gt;&lt;div&gt;&lt;br&gt;&lt;/div&gt;" style="rounded=0;whiteSpace=wrap;html=1;" vertex="1" parent="WIyWlLk6GJQsqaUBKTNV-1">
          <mxGeometry x="350" y="680" width="120" height="60" as="geometry" />
        </mxCell>
        <mxCell id="D13XUfttvfBrkzME06DZ-6" value="" style="edgeStyle=orthogonalEdgeStyle;rounded=0;orthogonalLoop=1;jettySize=auto;html=1;" edge="1" parent="WIyWlLk6GJQsqaUBKTNV-1" source="D13XUfttvfBrkzME06DZ-2" target="D13XUfttvfBrkzME06DZ-5">
          <mxGeometry relative="1" as="geometry" />
        </mxCell>
        <mxCell id="D13XUfttvfBrkzME06DZ-13" value="" style="edgeStyle=orthogonalEdgeStyle;rounded=0;orthogonalLoop=1;jettySize=auto;html=1;" edge="1" parent="WIyWlLk6GJQsqaUBKTNV-1" source="D13XUfttvfBrkzME06DZ-2" target="D13XUfttvfBrkzME06DZ-12">
          <mxGeometry relative="1" as="geometry" />
        </mxCell>
        <mxCell id="D13XUfttvfBrkzME06DZ-2" value="x &amp;lt; 10" style="rhombus;whiteSpace=wrap;html=1;" vertex="1" parent="WIyWlLk6GJQsqaUBKTNV-1">
          <mxGeometry x="350" y="160" width="80" height="80" as="geometry" />
        </mxCell>
        <mxCell id="D13XUfttvfBrkzME06DZ-16" style="edgeStyle=orthogonalEdgeStyle;rounded=0;orthogonalLoop=1;jettySize=auto;html=1;entryX=1;entryY=0.5;entryDx=0;entryDy=0;" edge="1" parent="WIyWlLk6GJQsqaUBKTNV-1" source="D13XUfttvfBrkzME06DZ-5" target="D13XUfttvfBrkzME06DZ-1">
          <mxGeometry relative="1" as="geometry">
            <mxPoint x="690" y="733" as="targetPoint" />
            <Array as="points">
              <mxPoint x="690" y="670" />
              <mxPoint x="691" y="710" />
            </Array>
          </mxGeometry>
        </mxCell>
        <mxCell id="D13XUfttvfBrkzME06DZ-5" value="&lt;h1&gt;true&lt;/h1&gt;" style="whiteSpace=wrap;html=1;" vertex="1" parent="WIyWlLk6GJQsqaUBKTNV-1">
          <mxGeometry x="630" y="170" width="120" height="60" as="geometry" />
        </mxCell>
        <mxCell id="D13XUfttvfBrkzME06DZ-15" value="" style="edgeStyle=orthogonalEdgeStyle;rounded=0;orthogonalLoop=1;jettySize=auto;html=1;" edge="1" parent="WIyWlLk6GJQsqaUBKTNV-1" source="D13XUfttvfBrkzME06DZ-12" target="D13XUfttvfBrkzME06DZ-14">
          <mxGeometry relative="1" as="geometry" />
        </mxCell>
        <mxCell id="D13XUfttvfBrkzME06DZ-12" value="&lt;h1&gt;false&lt;/h1&gt;" style="whiteSpace=wrap;html=1;" vertex="1" parent="WIyWlLk6GJQsqaUBKTNV-1">
          <mxGeometry x="10" y="170" width="120" height="60" as="geometry" />
        </mxCell>
        <mxCell id="D13XUfttvfBrkzME06DZ-18" value="" style="edgeStyle=orthogonalEdgeStyle;rounded=0;orthogonalLoop=1;jettySize=auto;html=1;" edge="1" parent="WIyWlLk6GJQsqaUBKTNV-1" source="D13XUfttvfBrkzME06DZ-14" target="D13XUfttvfBrkzME06DZ-17">
          <mxGeometry relative="1" as="geometry" />
        </mxCell>
        <mxCell id="D13XUfttvfBrkzME06DZ-14" value="&lt;h2&gt;x = x + 1&lt;/h2&gt;" style="whiteSpace=wrap;html=1;" vertex="1" parent="WIyWlLk6GJQsqaUBKTNV-1">
          <mxGeometry x="10" y="280" width="120" height="60" as="geometry" />
        </mxCell>
        <mxCell id="D13XUfttvfBrkzME06DZ-20" value="" style="edgeStyle=orthogonalEdgeStyle;rounded=0;orthogonalLoop=1;jettySize=auto;html=1;" edge="1" parent="WIyWlLk6GJQsqaUBKTNV-1" source="D13XUfttvfBrkzME06DZ-17" target="D13XUfttvfBrkzME06DZ-19">
          <mxGeometry relative="1" as="geometry" />
        </mxCell>
        <mxCell id="D13XUfttvfBrkzME06DZ-22" value="" style="edgeStyle=orthogonalEdgeStyle;rounded=0;orthogonalLoop=1;jettySize=auto;html=1;" edge="1" parent="WIyWlLk6GJQsqaUBKTNV-1" source="D13XUfttvfBrkzME06DZ-17" target="D13XUfttvfBrkzME06DZ-21">
          <mxGeometry relative="1" as="geometry" />
        </mxCell>
        <mxCell id="D13XUfttvfBrkzME06DZ-17" value="y &amp;gt; 0" style="rhombus;whiteSpace=wrap;html=1;" vertex="1" parent="WIyWlLk6GJQsqaUBKTNV-1">
          <mxGeometry x="30" y="390" width="80" height="80" as="geometry" />
        </mxCell>
        <mxCell id="D13XUfttvfBrkzME06DZ-27" style="edgeStyle=orthogonalEdgeStyle;rounded=0;orthogonalLoop=1;jettySize=auto;html=1;" edge="1" parent="WIyWlLk6GJQsqaUBKTNV-1" source="D13XUfttvfBrkzME06DZ-19" target="D13XUfttvfBrkzME06DZ-2">
          <mxGeometry relative="1" as="geometry" />
        </mxCell>
        <mxCell id="D13XUfttvfBrkzME06DZ-19" value="&lt;h1&gt;true&lt;/h1&gt;" style="whiteSpace=wrap;html=1;" vertex="1" parent="WIyWlLk6GJQsqaUBKTNV-1">
          <mxGeometry x="170" y="400" width="120" height="60" as="geometry" />
        </mxCell>
        <mxCell id="D13XUfttvfBrkzME06DZ-31" value="" style="edgeStyle=orthogonalEdgeStyle;rounded=0;orthogonalLoop=1;jettySize=auto;html=1;" edge="1" parent="WIyWlLk6GJQsqaUBKTNV-1" source="D13XUfttvfBrkzME06DZ-21" target="D13XUfttvfBrkzME06DZ-30">
          <mxGeometry relative="1" as="geometry" />
        </mxCell>
        <mxCell id="D13XUfttvfBrkzME06DZ-21" value="&lt;h1&gt;false&lt;/h1&gt;" style="whiteSpace=wrap;html=1;" vertex="1" parent="WIyWlLk6GJQsqaUBKTNV-1">
          <mxGeometry x="-150" y="400" width="120" height="60" as="geometry" />
        </mxCell>
        <mxCell id="D13XUfttvfBrkzME06DZ-37" style="edgeStyle=orthogonalEdgeStyle;rounded=0;orthogonalLoop=1;jettySize=auto;html=1;" edge="1" parent="WIyWlLk6GJQsqaUBKTNV-1" source="D13XUfttvfBrkzME06DZ-30">
          <mxGeometry relative="1" as="geometry">
            <mxPoint x="70" y="480" as="targetPoint" />
          </mxGeometry>
        </mxCell>
        <mxCell id="D13XUfttvfBrkzME06DZ-30" value="&lt;h1&gt;y = y - 1&lt;/h1&gt;" style="whiteSpace=wrap;html=1;" vertex="1" parent="WIyWlLk6GJQsqaUBKTNV-1">
          <mxGeometry x="-150" y="555" width="120" height="60" as="geometry" />
        </mxCell>
      </root>
    </mxGraphModel>
  </diagram>
</mxfile>
